<svg width="195" height="175" viewBox="0 0 195 175" fill="none" xmlns="http://www.w3.org/2000/svg">
<path fill-rule="evenodd" clip-rule="evenodd" d="M113.42 14.5834C119.844 14.5312 126.028 16.7858 130.612 20.8512C135.195 24.9167 137.802 30.4599 137.86 36.2615C137.918 42.0631 135.421 47.6479 130.92 51.7872C126.418 55.9264 120.28 58.2812 113.856 58.3334L112.096 63.0949C116.259 65.375 119.873 68.3876 122.722 71.9538C125.571 75.52 127.597 79.567 128.68 83.8542H139.33C141.185 80.0159 144.446 76.8714 148.567 74.9496C152.687 73.0277 157.414 72.4456 161.954 73.3013C166.493 74.1569 170.568 76.3981 173.493 79.6479C176.418 82.8977 178.015 86.9579 178.015 91.1459C178.015 95.3339 176.418 99.3941 173.493 102.644C170.568 105.894 166.493 108.135 161.954 108.991C157.414 109.846 152.687 109.264 148.567 107.342C144.446 105.42 141.185 102.276 139.33 98.4376H128.672C127.327 103.756 124.536 108.688 120.549 112.788L126.234 117.921C130.55 116.391 135.319 116.25 139.738 117.522C144.156 118.794 147.955 121.401 150.495 124.905C153.035 128.409 154.162 132.596 153.685 136.762C153.209 140.928 151.159 144.819 147.88 147.78C144.601 150.742 140.293 152.593 135.68 153.023C131.067 153.453 126.43 152.436 122.551 150.142C118.671 147.848 115.784 144.417 114.375 140.427C112.967 136.437 113.123 132.13 114.817 128.231L107.276 121.421C102.828 123.1 98.0552 123.962 93.2348 123.958C87.687 123.958 82.2128 122.811 77.2321 120.604L70.1996 128.231C72.8908 132.783 73.714 138.047 72.5237 143.093C71.3334 148.139 68.2062 152.643 63.6947 155.809C59.1832 158.975 53.5779 160.599 47.8691 160.393C42.1604 160.188 36.7158 158.167 32.4973 154.687C28.2789 151.207 25.5583 146.493 24.8161 141.377C24.074 136.261 25.3581 131.073 28.4416 126.729C31.5251 122.386 36.2095 119.166 41.6671 117.64C47.1246 116.113 53.0039 116.378 58.2661 118.388L64.6769 111.431C59.6288 105.654 56.889 98.5057 56.9016 91.1459C56.9016 85.7865 58.3226 80.7334 60.8417 76.2636L53.8334 70.9844C49.687 72.8608 44.9516 73.3904 40.4236 72.4843C35.8956 71.5781 31.8513 69.2914 28.9708 66.0087C26.0903 62.7261 24.5493 58.6477 24.6072 54.4596C24.665 50.2715 26.318 46.2291 29.2882 43.0123C32.2584 39.7956 36.3647 37.6006 40.9163 36.7967C45.4679 35.9927 50.1872 36.6288 54.2805 38.5979C58.3739 40.5671 61.5915 43.7491 63.3922 47.609C65.193 51.4688 65.467 55.7709 64.1682 59.7917L71.1927 65.0709C78.4868 60.0229 87.635 57.6713 96.7794 58.4938L98.5395 53.7251C94.5548 50.926 91.638 47.0725 90.1969 42.7031C88.7557 38.3338 88.8622 33.667 90.5015 29.355C92.1408 25.0431 95.2309 21.3014 99.34 18.653C103.449 16.0045 108.372 14.5817 113.42 14.5834ZM48.8275 131.25C46.6862 131.25 44.6325 132.018 43.1183 133.386C41.6041 134.753 40.7535 136.608 40.7535 138.542C40.7535 140.476 41.6041 142.33 43.1183 143.698C44.6325 145.065 46.6862 145.833 48.8275 145.833C50.9689 145.833 53.0226 145.065 54.5368 143.698C56.0509 142.33 56.9016 140.476 56.9016 138.542C56.9016 136.608 56.0509 134.753 54.5368 133.386C53.0226 132.018 50.9689 131.25 48.8275 131.25ZM133.605 131.25C132.534 131.25 131.508 131.634 130.751 132.318C129.993 133.002 129.568 133.929 129.568 134.896C129.568 135.863 129.993 136.79 130.751 137.474C131.508 138.158 132.534 138.542 133.605 138.542C134.676 138.542 135.703 138.158 136.46 137.474C137.217 136.79 137.642 135.863 137.642 134.896C137.642 133.929 137.217 133.002 136.46 132.318C135.703 131.634 134.676 131.25 133.605 131.25ZM93.2348 72.9167C87.8814 72.9167 82.7472 74.8373 78.9618 78.2559C75.1763 81.6746 73.0497 86.3112 73.0497 91.1459C73.0497 95.9806 75.1763 100.617 78.9618 104.036C82.7472 107.455 87.8814 109.375 93.2348 109.375C98.5883 109.375 103.722 107.455 107.508 104.036C111.293 100.617 113.42 95.9806 113.42 91.1459C113.42 86.3112 111.293 81.6746 107.508 78.2559C103.722 74.8373 98.5883 72.9167 93.2348 72.9167ZM157.827 87.5001C156.757 87.5001 155.73 87.8842 154.973 88.5679C154.216 89.2516 153.79 90.179 153.79 91.1459C153.79 92.1128 154.216 93.0402 154.973 93.7239C155.73 94.4076 156.757 94.7917 157.827 94.7917C158.898 94.7917 159.925 94.4076 160.682 93.7239C161.439 93.0402 161.864 92.1128 161.864 91.1459C161.864 90.179 161.439 89.2516 160.682 88.5679C159.925 87.8842 158.898 87.5001 157.827 87.5001ZM44.7905 51.0417C43.7198 51.0417 42.693 51.4259 41.9359 52.1096C41.1788 52.7933 40.7535 53.7206 40.7535 54.6876C40.7535 55.6545 41.1788 56.5818 41.9359 57.2656C42.693 57.9493 43.7198 58.3334 44.7905 58.3334C45.8612 58.3334 46.888 57.9493 47.6451 57.2656C48.4022 56.5818 48.8275 55.6545 48.8275 54.6876C48.8275 53.7206 48.4022 52.7933 47.6451 52.1096C46.888 51.4259 45.8612 51.0417 44.7905 51.0417ZM113.42 29.1667C111.279 29.1667 109.225 29.935 107.711 31.3024C106.197 32.6699 105.346 34.5245 105.346 36.4584C105.346 38.3923 106.197 40.2469 107.711 41.6144C109.225 42.9818 111.279 43.7501 113.42 43.7501C115.561 43.7501 117.615 42.9818 119.129 41.6144C120.643 40.2469 121.494 38.3923 121.494 36.4584C121.494 34.5245 120.643 32.6699 119.129 31.3024C117.615 29.935 115.561 29.1667 113.42 29.1667Z" fill="#B972BB"/>
</svg>
