<svg width="150" height="150" viewBox="0 0 150 150" fill="none" xmlns="http://www.w3.org/2000/svg">
<path d="M94.8438 137.5V131.194C94.87 129.544 95.5429 127.971 96.7177 126.812C97.8925 125.654 99.4751 125.003 101.125 125H101.594C110.544 124.925 118.231 118.712 120.056 110.075L120.119 109.75L123.369 93.75L129.244 90.85C132.4 89.3 133.969 88.5187 134.306 87.1C134.65 85.675 133.594 84.2875 131.488 81.5063L119.562 65.8312C118.375 64.2687 117.781 63.4938 117.469 62.6688C117.156 61.8438 117.05 60.6687 116.856 58.3375C114.706 32.6687 92.9063 12.5 66.325 12.5C38.325 12.5 15.625 34.8875 15.625 62.5C15.625 79.6875 24.4188 94.8437 37.8125 103.844M37.8125 103.844V137.5M37.8125 103.844C41.7231 106.488 45.9883 108.565 50.4812 110.012" stroke="#B972BB" stroke-width="5" stroke-linecap="round" stroke-linejoin="round"/>
<path d="M87.5 56.25L93.25 61.2063C95.6688 63.2875 96.875 64.3312 96.875 65.625C96.875 66.9188 95.6688 67.9625 93.25 70.0437L87.5 75M43.75 56.25L38 61.2063C35.5812 63.2875 34.375 64.3312 34.375 65.625C34.375 66.9188 35.5812 67.9625 38 70.0437L43.75 75M71.875 50L59.375 81.25" stroke="#B972BB" stroke-width="5" stroke-linecap="round" stroke-linejoin="round"/>
</svg>
