<svg width="115" height="115" viewBox="0 0 115 115" fill="none" xmlns="http://www.w3.org/2000/svg">
<path d="M90.8979 14.375H23.9583C18.6875 14.375 14.375 18.6875 14.375 23.9583V91.0417C14.375 96.3125 18.6875 100.625 23.9583 100.625H90.8979C96.1687 100.625 100.481 96.3125 100.481 91.0417V23.9583C100.481 21.4167 99.4716 18.9791 97.6744 17.1819C95.8771 15.3847 93.4396 14.375 90.8979 14.375ZM83.2792 81.3625C83.1354 81.4104 82.9437 81.4583 82.8 81.4583H71.9708C71.5019 81.4663 71.0413 81.3336 70.6484 81.0774C70.2556 80.8212 69.9485 80.4532 69.7667 80.0208L57.9792 52.5167C57.8833 52.2292 57.5958 52.0854 57.3563 52.1813C57.2797 52.2101 57.2102 52.2549 57.1523 52.3128C57.0945 52.3706 57.0497 52.4401 57.0208 52.5167L49.6896 70.0062C49.5458 70.3417 49.6896 70.6771 50.025 70.8208C50.1208 70.8687 50.1687 70.8687 50.2646 70.8687H58.3146C58.7938 70.8687 59.2729 71.1562 59.4646 71.6354L63.0104 79.4938C63.3458 80.2125 62.9625 81.075 62.2437 81.4104C61.9562 81.4104 61.7646 81.4583 61.5729 81.4583H32.2479C31.5292 81.4583 30.9062 80.8354 30.9062 80.1167C30.9062 79.925 30.9542 79.7812 31.0021 79.5896L49.6896 35.1229C50.0729 34.1646 51.0312 33.5417 52.0375 33.5417H62.8187C63.8729 33.5417 64.7833 34.1646 65.1667 35.1229L83.95 79.5896C84.2854 80.2604 83.9979 81.075 83.2792 81.3625Z" fill="#D92222"/>
</svg>
