<svg width="130" height="103" viewBox="0 0 130 103" fill="none" xmlns="http://www.w3.org/2000/svg">
<path d="M27.0032 0C19.5859 0 14.0972 6.45517 14.3429 13.4556C14.5791 20.1809 14.2723 28.892 12.067 35.9955C9.85508 43.1196 6.11368 47.6325 0.00292969 48.2121V54.7536C6.11368 55.3332 9.85508 59.846 12.067 66.9707C14.2723 74.0742 14.5791 82.7842 14.3429 89.51C14.0972 96.5095 19.5859 102.966 27.0042 102.966H103.007C110.424 102.966 115.912 96.5105 115.666 89.51C115.43 82.7847 115.736 74.0742 117.942 66.9707C120.155 59.8465 123.887 55.3327 129.997 54.7536V48.2121C123.887 47.6325 120.155 43.1196 117.942 35.9955C115.736 28.893 115.43 20.1814 115.666 13.4556C115.912 6.45618 110.424 0 103.007 0H27.0021H27.0032ZM88.135 63.3819C88.135 73.0214 80.9041 78.8672 68.904 78.8672H48.4756C47.8914 78.8669 47.3312 78.636 46.9181 78.2252C46.505 77.8144 46.2729 77.2573 46.2728 76.6764V26.2892C46.2728 25.7082 46.5049 25.1509 46.9181 24.7399C47.3313 24.329 47.8917 24.0981 48.4761 24.098H68.7872C78.7932 24.098 85.36 29.4878 85.36 37.7621C85.36 43.57 80.9422 48.7695 75.3143 49.6798V49.9833C82.9764 50.8189 88.135 56.0946 88.135 63.3819ZM66.6758 31.0429H55.0286V47.4017H64.8391C72.4225 47.4017 76.6046 44.3652 76.6046 38.9375C76.6046 33.8517 73.008 31.0429 66.6758 31.0429ZM55.0291 53.8927V71.9202H67.1054C75.0005 71.9202 79.1837 68.7702 79.1837 62.8497C79.1837 56.9282 74.8842 53.8917 66.5976 53.8917H55.0291V53.8927Z" fill="#7E13F8"/>
</svg>
