<svg width="115" height="115" viewBox="0 0 115 115" fill="none" xmlns="http://www.w3.org/2000/svg">
<path d="M53.3583 0.136669C52.9234 0.182489 51.5659 0.343309 50.3683 0.484364C45.5401 1.03511 40.065 2.48518 35.2601 4.50936C17.8709 11.775 4.78335 27.716 1.17253 46.0001C0.322607 50.3485 0.115967 52.485 0.115967 57.5001C0.115967 63.9644 0.75835 68.4251 2.46089 74.0619C8.02671 92.5068 22.5167 106.973 41.0092 112.561C46.5751 114.242 51.0601 114.884 57.5001 114.884C63.9643 114.884 68.4251 114.242 74.0619 112.539C92.5068 106.973 106.973 92.4835 112.561 73.9909C114.242 68.4251 114.884 63.9401 114.884 57.5001C114.884 54.7626 114.748 51.636 114.586 50.4842C112.723 37.1909 107.247 26.0126 98.1193 16.8808C89.0083 7.81921 77.8766 2.32347 64.8583 0.460106C63.065 0.206747 54.7616 -0.02505 53.3583 0.136669ZM34.6142 36.3617C35.836 36.73 36.4074 37.075 37.2358 37.9025C38.8467 39.5376 39.2151 40.4334 39.2151 42.8933C39.2151 44.736 39.145 45.0801 38.5942 46.045C37.5341 47.8383 35.0742 49.495 33.3725 49.5399C32.1749 49.5651 32.2243 49.035 33.5342 47.6559C35.2817 45.8384 35.5342 45.1493 35.5342 42.4333C35.5126 39.8126 35.1901 38.9168 33.9718 38.1801C32.9583 37.5593 31.856 37.6051 30.2451 38.3625C26.0583 40.366 21.5275 47.0351 19.7585 53.8677C17.4109 62.9752 21.5734 70.2642 28.4275 69.0217C30.4275 68.6533 34.2 66.7235 35.836 65.2033C37.1909 63.9644 37.1909 63.9401 37.3274 62.4002C37.6293 59.1775 39.9033 55.9593 42.9427 54.4643C44.3424 53.7725 44.6901 53.706 46.5751 53.706C48.3683 53.706 48.7825 53.7976 49.6567 54.2783C52.4392 55.8685 51.8642 59.5701 48.8526 59.5701C47.1051 59.5701 46.2067 58.6717 47.4735 58.1919C48.716 57.7319 48.2524 56.0051 46.8069 55.6152C45.1043 55.1767 43.1709 56.3276 41.9526 58.5351C40.4792 61.2035 40.4118 64.3785 41.8125 65.825C43.1709 67.2742 44.8725 66.1269 46.1851 62.8341C46.8733 61.1567 47.8625 60.2583 49.0143 60.2583C50.0251 60.2583 50.211 60.88 49.7717 62.7676C49.1266 65.6876 49.5651 66.4458 51.3826 65.551C51.9792 65.2734 52.9692 64.6319 53.5658 64.1719L54.6925 63.2735L55.4543 59.2934C56.2827 54.8326 56.6016 54.2325 58.3042 53.9135C59.9393 53.6117 60.3077 54.4185 59.7075 56.97L59.3841 58.3985L60.5817 57.1767C63.41 54.2783 66.8842 52.8534 68.081 54.0501C68.7234 54.6925 68.6533 55.4993 67.7342 58.3491C67.2984 59.7076 66.6983 61.8485 66.4251 63.0659C66.011 64.905 65.9858 65.3435 66.2185 65.6427C66.9552 66.5159 69.2076 65.6175 71.2084 63.6625L72.3809 62.5152L72.521 59.96C72.6576 57.0159 72.9316 55.9593 73.7142 55.015C74.4509 54.1417 75.7851 53.4994 76.4975 53.6817C77.21 53.8677 77.21 54.5559 76.5676 56.581C75.6692 59.3635 75.7635 65.7792 76.6835 65.7792C77.0519 65.7792 78.9359 63.8026 80.1335 62.1468L81.0284 60.9249L80.3159 60.1918C79.0733 58.8801 78.7751 58.0302 78.7751 55.8892C78.7751 54.3277 78.891 53.7518 79.28 52.9899C79.926 51.7968 80.9367 50.9235 82.1334 50.5758C83.3966 50.1859 84.9617 50.8283 85.6041 51.9792C86.2501 53.1517 86.0892 55.7733 85.26 57.5702L84.6634 58.8792H85.4675C86.5726 58.8792 87.0083 58.6052 88.9876 56.7418C90.0226 55.7526 91.2193 54.9 92.1142 54.4858C95.6342 52.8327 99.776 53.6817 100.463 56.2117C101.038 58.2368 99.776 59.6617 97.565 59.5C95.9784 59.385 95.6801 58.97 96.6001 58.1919C98.2559 56.8083 96.6001 55.0402 94.2309 55.6826C92.9425 56.0294 91.4933 57.4759 90.736 59.1568C89.2158 62.5152 90.0226 66.4701 92.2058 66.4701C93.08 66.4701 94.6235 64.7442 95.2201 63.0659C95.9325 61.1325 97.4275 59.9151 98.5542 60.3526C99.1759 60.5818 99.2217 61.2026 98.8318 63.1576C98.3933 65.2985 98.326 67.2994 98.6701 68.2185C98.8075 68.5617 99.2217 69.2076 99.6143 69.6434C100.347 70.4708 100.373 70.77 99.7509 71.1627C99.4526 71.3693 99.0591 71.2785 98.0951 70.7494C96.7609 70.0576 95.61 68.815 95.1958 67.6426L94.9434 66.9544L94.0234 67.6426C93.4933 68.0109 92.6658 68.4251 92.1842 68.5617C90.2751 69.0675 87.9275 67.7585 86.826 65.551C86.3866 64.6975 86.2501 62.1926 86.5726 61.2268C86.7559 60.6968 86.7559 60.6968 86.0183 61.0651C85.6292 61.2727 84.8009 61.5009 84.1585 61.5709C83.0984 61.6877 82.9366 61.8027 81.881 63.136C80.386 64.9958 77.7392 67.506 76.6583 68.0361C74.3601 69.1834 73.6019 68.8609 73.0017 66.4908L72.5875 64.905L71.5975 65.7792C70.3343 66.8843 67.8043 68.2185 66.3542 68.541C64.9751 68.8393 63.5016 68.4009 62.9042 67.4809C62.0102 66.1018 62.3085 63.1818 63.7325 59.2476C64.7891 56.3276 64.0317 56.2827 61.3643 59.0652C59.385 61.1567 58.5351 62.6517 57.9843 64.9751C57.4093 67.3901 56.7175 68.2634 55.156 68.6318C54.2118 68.8393 53.7724 68.2634 53.9593 67.0002L54.0959 65.9858L53.2217 66.586C51.9792 67.4359 50.4141 68.2185 49.3333 68.5168C48.2524 68.815 46.8275 68.4952 46.4834 67.895C45.8626 66.8394 45.8626 66.8394 44.8977 67.5967C42.8025 69.2993 39.8125 68.815 38.296 66.5617L37.8108 65.8493L36.2951 67.2526C31.9224 71.2543 26.451 73.0476 22.4017 71.805C17.2492 70.2435 14.3993 65.825 14.4451 59.4551C14.4667 53.0609 17.295 46.3226 22.0576 41.3318C24.7493 38.5242 27.2793 36.8675 29.856 36.2467C31.7158 35.7867 32.846 35.81 34.6142 36.3617Z" fill="#00C4CC"/>
<path d="M81.2349 52.7168C80.7291 53.2217 80.915 55.2468 81.5583 56.5352C81.8809 57.2018 82.225 57.7319 82.34 57.7319C82.4316 57.7319 82.6382 57.2018 82.8 56.5558C83.375 54.166 82.34 51.6108 81.2349 52.7168Z" fill="#00C4CC"/>
</svg>
