<svg width="115" height="116" viewBox="0 0 115 116" fill="none" xmlns="http://www.w3.org/2000/svg">
<path d="M40.8789 115.898C51.5703 115.898 60.1953 107.273 60.1953 96.582V77.2656H40.8789C30.1875 77.2656 21.5625 85.8906 21.5625 96.582C21.5625 107.273 30.1875 115.898 40.8789 115.898Z" fill="#0ACF83"/>
<path d="M21.5625 57.9492C21.5625 47.2578 30.1875 38.6328 40.8789 38.6328H60.1953V77.2656H40.8789C30.1875 77.2656 21.5625 68.6406 21.5625 57.9492Z" fill="#A259FF"/>
<path d="M21.5625 19.3164C21.5625 8.625 30.1875 0 40.8789 0H60.1953V38.6328H40.8789C30.1875 38.6328 21.5625 30.0078 21.5625 19.3164Z" fill="#F24E1E"/>
<path d="M60.1953 0H79.5117C90.2031 0 98.8281 8.625 98.8281 19.3164C98.8281 30.0078 90.2031 38.6328 79.5117 38.6328H60.1953V0Z" fill="#FF7262"/>
<path d="M98.8281 57.9492C98.8281 68.6406 90.2031 77.2656 79.5117 77.2656C68.8203 77.2656 60.1953 68.6406 60.1953 57.9492C60.1953 47.2578 68.8203 38.6328 79.5117 38.6328C90.2031 38.6328 98.8281 47.2578 98.8281 57.9492Z" fill="#1ABCFE"/>
</svg>
