<svg width="115" height="115" viewBox="0 0 115 115" fill="none" xmlns="http://www.w3.org/2000/svg">
<path d="M57.5 1.40381C62.7783 1.40381 67.8695 2.07764 72.7734 3.42529C77.6774 4.77295 82.2445 6.71956 86.4746 9.26514C90.7048 11.8107 94.5793 14.8055 98.0981 18.2495C101.617 21.6935 104.631 25.568 107.139 29.873C109.647 34.1781 111.575 38.7638 112.922 43.6304C114.27 48.4969 114.963 53.5881 115 58.9038C115 65.0806 114.064 71.0327 112.192 76.7603C110.321 82.4878 107.644 87.7474 104.163 92.5391C100.681 97.3307 96.5446 101.523 91.7529 105.117C86.9613 108.711 81.6081 111.5 75.6934 113.484C75.5811 113.521 75.4126 113.54 75.188 113.54C74.9634 113.54 74.7949 113.559 74.6826 113.596C73.7842 113.596 73.0729 113.334 72.5488 112.81C72.0247 112.286 71.7627 111.593 71.7627 110.732V102.871C71.7627 100.288 71.7814 97.6489 71.8188 94.9536C71.8188 93.0444 71.5381 91.1165 70.9766 89.1699C70.415 87.2233 69.4043 85.5949 67.9443 84.2847C72.2868 83.798 76.0864 82.9183 79.3433 81.6455C82.6001 80.3727 85.3328 78.5758 87.5415 76.2549C89.7502 73.9339 91.3973 71.1263 92.4829 67.832C93.5685 64.5378 94.13 60.5697 94.1675 55.9277C94.1675 53.0078 93.6808 50.2563 92.7075 47.6733C91.7342 45.0903 90.2555 42.6945 88.2715 40.4858C88.6833 39.4377 88.9827 38.3521 89.1699 37.229C89.3571 36.106 89.4507 34.9829 89.4507 33.8599C89.4507 32.3999 89.3009 30.9587 89.0015 29.5361C88.702 28.1136 88.2715 26.6911 87.71 25.2686C87.5228 25.1937 87.3169 25.1562 87.0923 25.1562C86.8677 25.1562 86.6618 25.1562 86.4746 25.1562C85.2767 25.1562 84.0226 25.3434 82.7124 25.7178C81.4022 26.0921 80.1107 26.5788 78.8379 27.1777C77.5651 27.7767 76.311 28.4318 75.0757 29.1431C73.8403 29.8543 72.7734 30.5282 71.875 31.1646C67.1956 29.8543 62.404 29.1992 57.5 29.1992C52.596 29.1992 47.8044 29.8543 43.125 31.1646C42.1891 30.5282 41.1222 29.8543 39.9243 29.1431C38.7264 28.4318 37.491 27.7954 36.2183 27.2339C34.9455 26.6724 33.6353 26.1857 32.2876 25.7739C30.9399 25.3621 29.6859 25.1562 28.5254 25.1562H27.9077C27.6831 25.1562 27.4772 25.1937 27.29 25.2686C26.766 26.6536 26.3542 28.0575 26.0547 29.48C25.7552 30.9025 25.5868 32.3625 25.5493 33.8599C25.5493 34.9829 25.6429 36.106 25.8301 37.229C26.0173 38.3521 26.3167 39.4377 26.7285 40.4858C24.7445 42.6571 23.2658 45.0342 22.2925 47.6172C21.3192 50.2002 20.8325 52.9704 20.8325 55.9277C20.8325 60.4948 21.3753 64.4442 22.4609 67.7759C23.5465 71.1076 25.1937 73.9152 27.4023 76.1987C29.611 78.4823 32.3438 80.2979 35.6006 81.6455C38.8574 82.9932 42.6571 83.8916 46.9995 84.3408C45.9139 85.3141 45.0903 86.4746 44.5288 87.8223C43.9673 89.1699 43.5742 90.5737 43.3496 92.0337C42.3389 92.5203 41.272 92.8947 40.1489 93.1567C39.0259 93.4188 37.9028 93.5498 36.7798 93.5498C34.384 93.5498 32.3999 92.9883 30.8276 91.8652C29.2554 90.7422 27.8516 89.2074 26.6162 87.2607C26.167 86.5495 25.6242 85.8382 24.9878 85.127C24.3514 84.4157 23.6589 83.7793 22.9102 83.2178C22.1615 82.6562 21.3566 82.207 20.4956 81.8701C19.6346 81.5332 18.7362 81.346 17.8003 81.3086H17.1265C16.827 81.3086 16.5462 81.3647 16.2842 81.4771C16.0221 81.5894 15.7601 81.7017 15.498 81.814C15.236 81.9263 15.1237 82.1134 15.1611 82.3755C15.1611 82.8247 15.4232 83.2552 15.9473 83.667C16.4714 84.0788 16.9019 84.4157 17.2388 84.6777L17.4072 84.79C18.2308 85.4264 18.9421 86.0254 19.541 86.5869C20.14 87.1484 20.7015 87.7661 21.2256 88.4399C21.7497 89.1138 22.1802 89.825 22.5171 90.5737C22.854 91.3224 23.2845 92.2021 23.8086 93.2129C25.0814 96.1328 26.8595 98.2479 29.1431 99.5581C31.4266 100.868 34.1781 101.542 37.3975 101.58C38.3708 101.58 39.3441 101.523 40.3174 101.411C41.2907 101.299 42.264 101.13 43.2373 100.906V110.676C43.2373 111.575 42.9753 112.286 42.4512 112.81C41.9271 113.334 41.1971 113.596 40.2612 113.596H39.812C39.6248 113.596 39.4564 113.559 39.3066 113.484C33.4294 111.575 28.0762 108.823 23.2471 105.229C18.418 101.636 14.2814 97.4243 10.8374 92.5952C7.39339 87.7661 4.73551 82.4878 2.86377 76.7603C0.992025 71.0327 0.0374349 65.0806 0 58.9038C0 53.6255 0.673828 48.5343 2.02148 43.6304C3.36914 38.7264 5.31576 34.1593 7.86133 29.9292C10.4069 25.6991 13.4017 21.8245 16.8457 18.3057C20.2897 14.7868 24.1642 11.7733 28.4692 9.26514C32.7743 6.757 37.36 4.8291 42.2266 3.48145C47.0931 2.13379 52.1842 1.44124 57.5 1.40381Z" fill="black"/>
</svg>
