<svg width="115" height="115" viewBox="0 0 115 115" fill="none" xmlns="http://www.w3.org/2000/svg">
<path d="M46.7188 91.0418C46.7188 90.4064 46.9712 89.797 47.4205 89.3477C47.8698 88.8984 48.4792 88.646 49.1146 88.646H65.8854C66.5208 88.646 67.1302 88.8984 67.5795 89.3477C68.0288 89.797 68.2812 90.4064 68.2812 91.0418C68.2812 91.6772 68.0288 92.2866 67.5795 92.7359C67.1302 93.1852 66.5208 93.4377 65.8854 93.4377H49.1146C48.4792 93.4377 47.8698 93.1852 47.4205 92.7359C46.9712 92.2866 46.7188 91.6772 46.7188 91.0418Z" fill="black"/>
<path d="M48.7313 10.7812H66.2688C68.8324 10.7812 70.9647 10.7812 72.7136 10.925C74.5345 11.0687 76.2403 11.3946 77.8551 12.2187C80.335 13.4822 82.3512 15.4984 83.6147 17.9783C84.4388 19.5931 84.7647 21.299 84.9084 23.1198C85.0522 24.8687 85.0522 27.001 85.0522 29.5646V85.4354C85.0522 87.999 85.0522 90.1312 84.9084 91.8802C84.7647 93.701 84.4388 95.4069 83.6147 97.0217C82.3525 99.5009 80.338 101.517 77.8599 102.781C76.2403 103.605 74.5345 103.931 72.7136 104.075C70.9647 104.219 68.8324 104.219 66.2736 104.219H48.7313C46.1678 104.219 44.0355 104.219 42.2865 104.075C40.4657 103.931 38.7599 103.605 37.1451 102.781C34.6666 101.52 32.6505 99.5076 31.3855 97.0312C30.5613 95.4117 30.2355 93.7058 30.0917 91.885C29.948 90.136 29.948 88.0037 29.948 85.4402V29.5646C29.948 27.001 29.948 24.8687 30.0917 23.1198C30.2355 21.299 30.5613 19.5931 31.3855 17.9783C32.6489 15.4984 34.6651 13.4822 37.1451 12.2187C38.7599 11.3946 40.4657 11.0687 42.2865 10.925C44.0355 10.7812 46.1678 10.7812 48.7313 10.7812ZM42.8711 18.0885C41.4959 18.1988 40.8395 18.4 40.4082 18.6204C39.2794 19.195 38.3617 20.1126 37.7872 21.2415C37.5667 21.6727 37.3655 22.3292 37.2553 23.7044C37.1403 25.1227 37.1355 26.9627 37.1355 29.7083V85.2917C37.1355 88.0325 37.1355 89.8773 37.2553 91.2908C37.3655 92.6708 37.5667 93.3273 37.7872 93.7585C38.3622 94.8894 39.2774 95.8046 40.4082 96.3796C40.8395 96.6 41.4959 96.8012 42.8711 96.9115C44.2895 97.0265 46.1295 97.0312 48.8751 97.0312H66.1251C68.8659 97.0312 70.7107 97.0312 72.1242 96.9115C73.5042 96.8012 74.1607 96.6 74.5967 96.3796C75.7238 95.8042 76.6397 94.8867 77.213 93.7585C77.4334 93.3273 77.6347 92.6708 77.7449 91.2908C77.8599 89.8773 77.8647 88.0325 77.8647 85.2917V29.7083C77.8647 26.9675 77.8647 25.1227 77.7449 23.7044C77.6347 22.3292 77.4334 21.6727 77.213 21.2415C76.6397 20.1133 75.7238 19.1958 74.5967 18.6204C74.1607 18.4 73.5042 18.1988 72.129 18.0885C71.1132 18.0158 70.0952 17.979 69.0767 17.9783L68.4826 19.7656C67.9795 21.2702 67.7255 22.0273 67.2607 22.5831C66.8501 23.0743 66.3229 23.4549 65.7274 23.69C65.047 23.9583 64.2515 23.9583 62.6607 23.9583H52.3395C50.7486 23.9583 49.9532 23.9583 49.2728 23.69C48.6778 23.4562 48.1507 23.0774 47.7395 22.5879C47.2747 22.0273 47.0207 21.2702 46.5176 19.7608L45.9234 17.9783C44.905 17.979 43.8869 18.0158 42.8711 18.0885Z" fill="black"/>
</svg>
