<svg width="122" height="105" viewBox="0 0 122 105" fill="none" xmlns="http://www.w3.org/2000/svg">
<path d="M102.482 71.4696C102.993 71.1759 103.418 70.7527 103.714 70.2427C104.011 69.7326 104.167 69.1535 104.169 68.5636L104.23 49.0994C104.232 48.5094 104.388 47.9302 104.685 47.4201C104.981 46.9099 105.406 46.4867 105.917 46.193L116.46 40.1323C116.971 39.8384 117.55 39.6841 118.14 39.685C118.729 39.6859 119.308 39.8419 119.818 40.1373C120.328 40.4327 120.751 40.8571 121.046 41.368C121.34 41.879 121.495 42.4584 121.495 43.0482V78.435C121.495 79.0267 121.339 79.6079 121.043 80.12C120.746 80.632 120.32 81.0568 119.808 81.3514L80.0181 104.223C79.5099 104.515 78.934 104.669 78.3479 104.67C77.7617 104.67 77.1856 104.517 76.6767 104.226L45.451 86.3526C44.9365 86.0587 44.5088 85.6339 44.2112 85.1212C43.9137 84.6086 43.7569 84.0263 43.7566 83.4334V65.59C43.7566 65.5702 43.7803 65.5569 43.8006 65.5664C43.8171 65.5768 43.8408 65.5664 43.8408 65.5427V65.5229C43.8408 65.5096 43.8474 65.4959 43.8611 65.4893L69.579 50.7037C69.6026 50.69 69.5922 50.6531 69.5653 50.6531C69.5581 50.6531 69.5513 50.6502 69.5462 50.6452C69.5412 50.6401 69.5383 50.6333 69.5383 50.6261L69.5889 33.1327C69.5913 32.5412 69.4378 31.9594 69.1438 31.4462C68.8498 30.933 68.4257 30.5065 67.9144 30.2097C67.403 29.9129 66.8225 29.7563 66.2314 29.7557C65.6402 29.7552 65.0594 29.9106 64.5475 30.2065L45.434 41.2291C44.9239 41.5231 44.3455 41.6779 43.7569 41.6779C43.1682 41.6779 42.5899 41.5231 42.0798 41.2291L22.9057 30.1805C22.3949 29.8859 21.8157 29.731 21.2262 29.7313C20.6366 29.7316 20.0576 29.8871 19.5471 30.1822C19.0366 30.4773 18.6127 30.9017 18.3179 31.4126C18.0231 31.9235 17.8678 32.503 17.8676 33.093V64.7094C17.8682 65.2987 17.714 65.8778 17.4205 66.3888C17.127 66.8997 16.7045 67.3244 16.1953 67.6205C15.6861 67.9165 15.1081 68.0734 14.5192 68.0755C13.9303 68.0776 13.3512 67.9248 12.84 67.6323L2.19899 61.5433C1.68369 61.2488 1.25551 60.823 0.95799 60.3091C0.66047 59.7953 0.504221 59.2118 0.505131 58.6179L0.599654 3.35579C0.601019 2.7668 0.75694 2.1885 1.05181 1.67876C1.34668 1.16902 1.77016 0.745729 2.27987 0.451245C2.78958 0.156762 3.36763 0.00141587 3.95618 0.000755049C4.54473 9.42309e-05 5.12313 0.154142 5.63349 0.44748L42.0831 21.3973C42.5924 21.6901 43.1695 21.8442 43.7569 21.8442C44.3442 21.8442 44.9213 21.6901 45.4306 21.3973L81.8694 0.446534C82.3806 0.152503 82.9601 -0.00174776 83.5497 -0.000727392C84.1393 0.000292975 84.7182 0.156549 85.2284 0.452347C85.7386 0.748146 86.162 1.17307 86.4561 1.68446C86.7503 2.19584 86.9048 2.77567 86.9042 3.36572V58.6407C86.9045 59.232 86.7491 59.8129 86.4536 60.3249C86.158 60.837 85.7327 61.2619 85.2207 61.557L66.1374 72.5555C65.6248 72.8512 65.1992 73.277 64.9038 73.79C64.6084 74.3031 64.4535 74.885 64.4548 75.4771C64.4562 76.0692 64.6137 76.6505 64.9114 77.1621C65.2092 77.6738 65.6367 78.0977 66.1506 78.3911L76.6772 84.3884C77.1859 84.6781 77.7614 84.8299 78.3467 84.8287C78.9321 84.8274 79.5069 84.6732 80.0144 84.3813L102.482 71.4696ZM104.69 21.8855C104.691 22.4803 104.849 23.0644 105.148 23.5782C105.448 24.0919 105.878 24.517 106.396 24.81C106.913 25.103 107.499 25.2535 108.093 25.2461C108.687 25.2386 109.269 25.0736 109.779 24.7677L119.862 18.7137C120.359 18.4153 120.771 17.9929 121.058 17.4878C121.344 16.9827 121.495 16.4121 121.495 15.8314V3.4939C121.494 2.89933 121.335 2.31565 121.036 1.80234C120.736 1.28904 120.305 0.864446 119.788 0.571835C119.271 0.279223 118.686 0.129051 118.091 0.136618C117.497 0.144185 116.916 0.309222 116.406 0.614912L106.324 6.66897C105.826 6.96737 105.414 7.38974 105.128 7.89494C104.841 8.40014 104.691 8.97094 104.69 9.55174V21.8888V21.8855Z" fill="#007FFF"/>
</svg>
