<svg width="115" height="115" viewBox="0 0 115 115" fill="none" xmlns="http://www.w3.org/2000/svg">
<path d="M0 57.5001C0 74.2048 25.7438 87.7478 57.5 87.7478C89.2562 87.7478 115 74.2048 115 57.5001C115 40.7955 89.2553 27.2524 57.5 27.2524C25.7447 27.2524 0 40.7955 0 57.5001Z" fill="url(#paint0_radial_200_149)"/>
<path d="M57.5 85.5017C88.0154 85.5017 112.754 72.964 112.754 57.5001C112.754 42.0344 88.0154 29.4985 57.5 29.4985C26.9846 29.4985 2.24609 42.0344 2.24609 57.5001C2.24609 72.964 26.9846 85.5017 57.5 85.5017Z" fill="#777BB3"/>
<path d="M31.2404 60.9717C33.7498 60.9717 35.6221 60.509 36.8071 59.5971C37.9805 58.6932 38.79 57.129 39.215 54.9476C39.6103 52.9082 39.4593 51.4851 38.7657 50.716C38.0578 49.9308 36.5259 49.5328 34.2134 49.5328H30.2027L27.9809 60.9717H31.2404ZM18.1241 75.0619C18.0321 75.0617 17.9413 75.0412 17.8581 75.0019C17.7749 74.9625 17.7015 74.9052 17.6431 74.8341C17.5847 74.763 17.5428 74.6798 17.5203 74.5906C17.4979 74.5013 17.4954 74.4082 17.5132 74.318L23.4043 44.0065C23.4321 43.8648 23.5082 43.7371 23.6196 43.6452C23.731 43.5533 23.8708 43.5028 24.0152 43.5024H36.7137C40.7046 43.5024 43.6748 44.586 45.5427 46.7233C47.4186 48.8706 47.999 51.875 47.265 55.6493C46.9658 57.1865 46.4519 58.6142 45.7376 59.8935C44.9943 61.2096 44.0456 62.3986 42.9273 63.4154C41.5518 64.702 39.9948 65.6363 38.303 66.1853C36.6391 66.728 34.5009 67.0029 31.9511 67.0029H26.8084L25.3404 74.5569C25.3127 74.6991 25.2364 74.8272 25.1246 74.9193C25.0128 75.0114 24.8725 75.0618 24.7277 75.0619H18.1241Z" fill="black"/>
<path d="M30.7175 50.1562H34.2133C37.0047 50.1562 37.9742 50.7689 38.3039 51.1346C38.8492 51.7401 38.9535 53.0186 38.6013 54.8289C38.2069 56.8567 37.4755 58.2951 36.427 59.1019C35.3543 59.9285 33.6078 60.3471 31.2404 60.3471H28.7373L30.7175 50.1562ZM36.7136 42.8788H24.016C23.7265 42.8789 23.4459 42.9795 23.2224 43.1635C22.9988 43.3476 22.8462 43.6036 22.7906 43.8878L16.8995 74.2002C16.8647 74.3807 16.8702 74.5667 16.9157 74.7449C16.9611 74.9231 17.0453 75.0891 17.1623 75.2309C17.2792 75.3728 17.4261 75.4871 17.5924 75.5656C17.7586 75.6442 17.9402 75.685 18.1241 75.6853H24.7276C25.0171 75.685 25.2976 75.5841 25.521 75.3999C25.7443 75.2157 25.8968 74.9596 25.9522 74.6754L27.3223 67.6263H31.9501C34.5664 67.6263 36.7694 67.3406 38.497 66.7782C40.2733 66.2014 41.9075 65.223 43.354 63.8699C44.5189 62.8093 45.5073 61.5698 46.282 60.198C47.0286 58.862 47.5659 57.3706 47.8767 55.7678C48.6494 51.794 48.0214 48.6127 46.0116 46.3127C44.0206 44.0333 40.8923 42.8779 36.7136 42.8779V42.8788ZM27.2235 61.5942H31.2404C33.9027 61.5948 35.8853 61.0932 37.188 60.0893C38.4908 59.0866 39.3706 57.4123 39.8276 55.0661C40.2637 52.8129 40.0645 51.2232 39.2302 50.2972C38.3946 49.3712 36.7223 48.9082 34.2133 48.9082H29.6888L27.2235 61.5942ZM36.7146 44.1241C40.5347 44.1241 43.3208 45.1267 45.0727 47.132C46.8247 49.1373 47.3517 51.9363 46.654 55.5288C46.3653 57.0095 45.8786 58.3625 45.194 59.588C44.5082 60.8146 43.6125 61.9368 42.5068 62.9544C41.1891 64.1883 39.724 65.0672 38.1116 65.5913C36.4998 66.116 34.4463 66.3781 31.951 66.3775H26.2945L24.7285 74.4364H18.125L24.0169 44.1241H36.7146Z" fill="white"/>
<path d="M62.4046 67.0028C62.3125 67.0029 62.2216 66.9826 62.1383 66.9434C62.055 66.9042 61.9814 66.847 61.9228 66.776C61.8642 66.7049 61.8221 66.6218 61.7994 66.5325C61.7768 66.4433 61.7742 66.3501 61.7919 66.2598L64.3973 52.8479C64.6462 51.5721 64.5851 50.6575 64.2266 50.2694C64.0065 50.0331 63.3471 49.6369 61.3966 49.6369H56.6744L53.3987 66.4987C53.3705 66.6407 53.294 66.7685 53.182 66.8603C53.0701 66.9521 52.9298 67.0021 52.785 67.0019H46.2354C46.1434 67.0019 46.0525 66.9817 45.9693 66.9425C45.886 66.9033 45.8124 66.8463 45.7538 66.7754C45.6952 66.7045 45.6529 66.6215 45.6301 66.5323C45.6073 66.4432 45.6044 66.3501 45.6218 66.2598L51.5137 35.9474C51.5416 35.8054 51.618 35.6775 51.7298 35.5855C51.8415 35.4936 51.9818 35.4434 52.1265 35.4434H58.6761C58.7681 35.4433 58.859 35.4636 58.9422 35.5027C59.0255 35.5419 59.0991 35.599 59.1577 35.6699C59.2163 35.7408 59.2586 35.8238 59.2814 35.9129C59.3042 36.002 59.3071 36.0951 59.2897 36.1855L57.8684 43.5023H62.9473C66.8168 43.5023 69.4403 44.1834 70.9685 45.5876C72.5255 47.0188 73.0125 49.3071 72.4132 52.3915L69.6721 66.4987C69.644 66.6406 69.5675 66.7683 69.4558 66.86C69.344 66.9518 69.2039 67.0019 69.0593 67.0019L62.4046 67.0028Z" fill="black"/>
<path d="M58.6771 34.8188H52.1266C51.8369 34.8189 51.5562 34.9197 51.3327 35.1039C51.1091 35.2881 50.9565 35.5444 50.9011 35.8287L45.01 66.1402C44.9751 66.3208 44.9805 66.5069 45.0258 66.6852C45.0712 66.8635 45.1554 67.0296 45.2724 67.1716C45.3894 67.3135 45.5363 67.4279 45.7026 67.5065C45.869 67.5851 46.0506 67.626 46.2346 67.6262H52.7851C53.0748 67.6261 53.3555 67.5254 53.579 67.3411C53.8026 67.1569 53.9551 66.9007 54.0106 66.6163L57.1884 50.2603H61.3948C63.3427 50.2603 63.7523 50.6763 63.7676 50.6951C63.8862 50.8209 64.0416 51.4094 63.7847 52.7292L61.1792 66.1402C61.1443 66.3209 61.1497 66.5071 61.1951 66.6854C61.2405 66.8638 61.3247 67.0299 61.4418 67.1719C61.5589 67.3139 61.706 67.4283 61.8724 67.5068C62.0389 67.5853 62.2206 67.6261 62.4047 67.6262H69.0603C69.3498 67.6259 69.6303 67.525 69.8537 67.3408C70.077 67.1566 70.2295 66.9005 70.2849 66.6163L73.026 52.5109C73.6684 49.1992 73.1186 46.716 71.3909 45.1284C69.7413 43.6137 66.9795 42.8778 62.9473 42.8778H58.6259L59.9025 36.3058C59.9376 36.125 59.9323 35.9387 59.887 35.7602C59.8417 35.5818 59.7574 35.4155 59.6403 35.2734C59.5232 35.1313 59.3761 35.0169 59.2096 34.9383C59.0431 34.8597 58.8612 34.8189 58.6771 34.8188ZM58.6771 36.0677L57.1111 44.1249H62.9473C66.6196 44.1249 69.1522 44.7657 70.5454 46.0475C71.9398 47.3281 72.3585 49.4035 71.8014 52.2737L69.0594 66.3783H62.4047L65.0111 52.9664C65.3075 51.4408 65.1982 50.4004 64.6831 49.8452C64.168 49.2906 63.0725 49.0133 61.3966 49.0133H56.1596L52.7851 66.3774H46.2337L52.1257 36.065H58.6771V36.0677Z" fill="white"/>
<path d="M82.7783 60.9717C85.2877 60.9717 87.1609 60.509 88.3469 59.5971C89.5184 58.6932 90.3288 57.129 90.7538 54.9476C91.1491 52.9082 90.999 51.4851 90.3046 50.716C89.5966 49.9308 88.0647 49.5328 85.7522 49.5328H81.7424L79.5188 60.9717H82.7783ZM69.6647 75.0619C69.5726 75.062 69.4815 75.0417 69.3981 75.0024C69.3148 74.9632 69.2411 74.9059 69.1825 74.8348C69.1239 74.7636 69.0818 74.6804 69.0593 74.591C69.0367 74.5016 69.0342 74.4084 69.052 74.318L74.9431 44.0065C74.971 43.8645 75.0473 43.7366 75.1591 43.6446C75.2709 43.5527 75.4111 43.5024 75.5558 43.5024H88.2534C92.2443 43.5024 95.2145 44.586 97.0815 46.7233C98.9583 48.8706 99.5378 51.875 98.8038 55.6493C98.5229 57.136 98.0077 58.5686 97.2773 59.8935C96.534 61.2096 95.5853 62.3986 94.467 63.4154C93.0924 64.702 91.5336 65.6363 89.8428 66.1853C88.1789 66.728 86.0406 67.0029 83.4899 67.0029H78.3481L76.881 74.5569C76.8532 74.6993 76.7768 74.8275 76.6649 74.9196C76.5529 75.0117 76.4124 75.062 76.2674 75.0619H69.6647Z" fill="black"/>
<path d="M82.2565 50.1562H85.7524C88.5438 50.1562 89.5132 50.7689 89.8421 51.1346C90.3901 51.7401 90.4925 53.0186 90.1412 54.8289C89.7459 56.8567 89.0146 58.2951 87.9661 59.1019C86.8925 59.9285 85.1459 60.3471 82.7794 60.3471H80.2764L82.2565 50.1562ZM88.2527 42.8788H75.5551C75.2657 42.8791 74.9853 42.9798 74.762 43.1638C74.5386 43.3479 74.3861 43.6038 74.3305 43.8878L68.4386 74.2002C68.4038 74.3808 68.4093 74.5669 68.4548 74.7451C68.5002 74.9234 68.5845 75.0894 68.7016 75.2313C68.8187 75.3732 68.9657 75.4874 69.132 75.5659C69.2984 75.6444 69.4801 75.6852 69.664 75.6853H76.2676C76.5571 75.685 76.8375 75.5841 77.0609 75.3999C77.2843 75.2157 77.4367 74.9596 77.4921 74.6754L78.8622 67.6263H83.4892C86.1046 67.6263 88.3084 67.3406 90.0352 66.7782C91.8123 66.2014 93.4466 65.223 94.894 63.869C96.0585 62.8086 97.0466 61.5694 97.8211 60.198C98.5686 58.862 99.104 57.3706 99.4158 55.7678C100.188 51.794 99.5613 48.6127 97.5506 46.3127C95.5597 44.0333 92.4322 42.8779 88.2518 42.8779L88.2527 42.8788ZM78.7625 61.5942H82.7785C85.4409 61.5948 87.4241 61.0932 88.728 60.0893C90.0307 59.0866 90.91 57.4123 91.3658 55.0661C91.8036 52.8129 91.6045 51.2232 90.7683 50.2972C89.9322 49.3712 88.2602 48.9082 85.7524 48.9082H81.2287L78.7625 61.5942ZM88.2527 44.1241C92.0729 44.1241 94.8589 45.1267 96.6109 47.132C98.3628 49.1373 98.8896 51.9363 98.1912 55.5288C97.9037 57.0095 97.4174 58.3625 96.7322 59.588C96.047 60.8146 95.1509 61.9368 94.044 62.9544C92.7263 64.1883 91.2613 65.0672 89.6489 65.5913C88.0377 66.116 85.9845 66.3781 83.4892 66.3775H77.8335L76.2658 74.4364H69.6622L75.5542 44.1241H88.2527Z" fill="white"/>
<defs>
<radialGradient id="paint0_radial_200_149" cx="0" cy="0" r="1" gradientUnits="userSpaceOnUse" gradientTransform="translate(34.5234 37.8863) scale(75.5059 75.5059)">
<stop stop-color="#AEB2D5"/>
<stop offset="0.3" stop-color="#AEB2D5"/>
<stop offset="0.75" stop-color="#484C89"/>
<stop offset="1" stop-color="#484C89"/>
</radialGradient>
</defs>
</svg>
