<svg width="115" height="115" viewBox="0 0 115 115" fill="none" xmlns="http://www.w3.org/2000/svg">
<path d="M57.5 67.7422C63.1566 67.7422 67.7422 63.1566 67.7422 57.5C67.7422 51.8434 63.1566 47.2578 57.5 47.2578C51.8434 47.2578 47.2578 51.8434 47.2578 57.5C47.2578 63.1566 51.8434 67.7422 57.5 67.7422Z" fill="#61DAFB"/>
<path d="M96.4023 40.6094C94.4258 39.8906 92.3594 39.1719 90.2031 38.543C90.7422 36.3867 91.1914 34.2305 91.5508 32.1641C93.4375 20.3047 91.3711 11.9492 85.6211 8.71484C83.9141 7.72656 82.0273 7.27734 79.8711 7.27734C73.582 7.27734 65.5859 11.9492 57.5 19.7656C49.4141 11.9492 41.418 7.27734 35.1289 7.27734C32.9727 7.27734 31.0859 7.72656 29.3789 8.71484C23.6289 12.0391 21.5625 20.3945 23.4492 32.1641C23.8086 34.2305 24.2578 36.3867 24.7969 38.543C22.6406 39.1719 20.5742 39.8008 18.5977 40.6094C7.36719 44.9219 1.25781 50.8516 1.25781 57.5C1.25781 64.1484 7.45703 70.0781 18.5977 74.3906C20.5742 75.1094 22.6406 75.8281 24.7969 76.457C24.2578 78.6133 23.8086 80.7695 23.4492 82.8359C21.5625 94.6953 23.6289 103.051 29.3789 106.285C31.0859 107.273 32.9727 107.723 35.1289 107.723C41.5078 107.723 49.5039 103.051 57.5 95.2344C65.5859 103.051 73.582 107.723 79.8711 107.723C82.0273 107.723 83.9141 107.273 85.6211 106.285C91.3711 102.961 93.4375 94.6055 91.5508 82.8359C91.1914 80.7695 90.7422 78.6133 90.2031 76.457C92.3594 75.8281 94.4258 75.1992 96.4023 74.3906C107.633 70.0781 113.742 64.1484 113.742 57.5C113.742 50.8516 107.633 44.9219 96.4023 40.6094ZM83.1055 13.207C86.7891 15.3633 88.0469 22.0117 86.5195 31.4453C86.25 33.332 85.8008 35.3086 85.2617 37.375C80.5898 36.2969 75.6484 35.5781 70.4375 35.1289C67.3828 30.8164 64.2383 26.9531 61.0938 23.4492C67.7422 16.8906 74.4805 12.3984 79.9609 12.3984C81.1289 12.3984 82.207 12.668 83.1055 13.207ZM73.043 66.4844C71.4258 69.3594 69.5391 72.2344 67.5625 75.1094C64.2383 75.3789 60.9141 75.4688 57.5 75.4688C53.9961 75.4688 50.6719 75.3789 47.4375 75.1094C45.4609 72.2344 43.6641 69.3594 42.0469 66.4844C40.3398 63.5195 38.7227 60.4648 37.2852 57.5C38.7227 54.5352 40.3398 51.4805 42.0469 48.5156C43.6641 45.6406 45.5508 42.7656 47.5273 39.8906C50.8516 39.6211 54.1758 39.5312 57.5898 39.5312C61.0937 39.5312 64.418 39.6211 67.6523 39.8906C69.6289 42.7656 71.4258 45.6406 73.043 48.5156C74.75 51.4805 76.3672 54.5352 77.8047 57.5C76.2773 60.4648 74.75 63.4297 73.043 66.4844ZM80.5 63.5195C81.8477 66.6641 82.9258 69.7188 83.9141 72.7734C80.8594 73.4922 77.625 74.0312 74.2109 74.4805C75.2891 72.7734 76.457 70.9766 77.4453 69.0898C78.5234 67.2031 79.5117 65.3164 80.5 63.5195ZM57.5 87.8672C55.3438 85.5313 53.2773 83.0156 51.3008 80.4102C53.3672 80.5 55.4336 80.5898 57.5 80.5898C59.5664 80.5898 61.6328 80.5 63.6992 80.4102C61.7227 83.0156 59.6562 85.5313 57.5 87.8672ZM40.7891 74.3906C37.375 73.9414 34.1406 73.4023 31.0859 72.6836C32.0742 69.7188 33.1523 66.5742 34.5 63.4297C35.4883 65.2266 36.4766 67.1133 37.5547 68.9102C38.6328 70.8867 39.7109 72.5938 40.7891 74.3906ZM34.5 51.4805C33.1523 48.3359 32.0742 45.2812 31.0859 42.2266C34.1406 41.5078 37.375 40.9688 40.7891 40.5195C39.7109 42.2266 38.543 44.0234 37.5547 45.9102C36.4766 47.7969 35.4883 49.6836 34.5 51.4805ZM57.5 27.1328C59.6562 29.4688 61.7227 31.9844 63.6992 34.5898C61.6328 34.5 59.5664 34.4102 57.5 34.4102C55.4336 34.4102 53.3672 34.5 51.3008 34.5898C53.2773 31.9844 55.3438 29.4688 57.5 27.1328ZM77.4453 46L74.2109 40.6094C77.625 41.0586 80.8594 41.5977 83.9141 42.3164C82.9258 45.2812 81.8477 48.4258 80.5 51.5703C79.5117 49.6836 78.5234 47.7969 77.4453 46ZM28.4805 31.4453C26.9531 22.0117 28.2109 15.3633 31.8945 13.207C32.793 12.668 33.8711 12.3984 35.0391 12.3984C40.4297 12.3984 47.168 16.8008 53.9062 23.4492C50.7617 26.8633 47.6172 30.8164 44.5625 35.1289C39.3516 35.5781 34.4102 36.3867 29.7383 37.375C29.1992 35.3086 28.8398 33.332 28.4805 31.4453ZM6.28906 57.5C6.28906 53.2773 11.4102 48.7852 20.3945 45.4609C22.1914 44.7422 24.168 44.1133 26.1445 43.5742C27.582 48.0664 29.3789 52.8281 31.5352 57.5898C29.3789 62.3516 27.4922 67.0234 26.1445 71.5156C13.7461 67.9219 6.28906 62.5312 6.28906 57.5ZM31.8945 101.793C28.2109 99.6367 26.9531 92.9883 28.4805 83.5547C28.75 81.668 29.1992 79.6914 29.7383 77.625C34.4102 78.7031 39.3516 79.4219 44.5625 79.8711C47.6172 84.1836 50.7617 88.0469 53.9062 91.5508C47.2578 98.1094 40.5195 102.602 35.0391 102.602C33.8711 102.602 32.793 102.332 31.8945 101.793ZM86.5195 83.5547C88.0469 92.9883 86.7891 99.6367 83.1055 101.793C82.207 102.332 81.1289 102.602 79.9609 102.602C74.5703 102.602 67.832 98.1992 61.0938 91.5508C64.2383 88.1367 67.3828 84.1836 70.4375 79.8711C75.6484 79.4219 80.5898 78.6133 85.2617 77.625C85.8008 79.6914 86.1602 81.668 86.5195 83.5547ZM94.6055 69.5391C92.8086 70.2578 90.832 70.8867 88.8555 71.4258C87.418 66.9336 85.6211 62.1719 83.4648 57.4102C85.6211 52.6484 87.5078 47.9766 88.8555 43.4844C101.254 47.0781 108.711 52.4688 108.711 57.5C108.711 61.7227 103.5 66.2148 94.6055 69.5391Z" fill="#61DAFB"/>
</svg>
