<svg width="115" height="115" viewBox="0 0 115 115" fill="none" xmlns="http://www.w3.org/2000/svg">
<path d="M32.3437 35.9375L46.7187 46.7187L32.3437 57.5M53.9062 57.5H68.2812M25.1562 97.0312H89.8437C92.7031 97.0312 95.4454 95.8954 97.4672 93.8735C99.4891 91.8516 100.625 89.1094 100.625 86.25V28.75C100.625 25.8906 99.4891 23.1484 97.4672 21.1265C95.4454 19.1046 92.7031 17.9688 89.8437 17.9688H25.1562C22.2969 17.9688 19.5546 19.1046 17.5328 21.1265C15.5109 23.1484 14.375 25.8906 14.375 28.75V86.25C14.375 89.1094 15.5109 91.8516 17.5328 93.8735C19.5546 95.8954 22.2969 97.0312 25.1562 97.0312Z" stroke="black" stroke-width="7.1875" stroke-linecap="round" stroke-linejoin="round"/>
</svg>
