<svg width="150" height="150" viewBox="0 0 150 150" fill="none" xmlns="http://www.w3.org/2000/svg">
<path d="M21.375 75C21.375 67.25 23.0625 59.875 26 53.125L51.625 123.25C42.5513 118.872 34.8982 112.02 29.5467 103.484C24.1951 94.9484 21.3626 85.0748 21.375 75ZM111.187 72.3125C111.187 76.875 109.375 82.1875 107.125 89.625L101.75 107.5L82.375 50L88.5 49.375C91.4375 49 91.0625 44.75 88.1875 44.9375C88.1875 44.9375 79.5 45.625 73.875 45.625L59.75 44.9375C56.875 44.75 56.5625 49.1875 59.375 49.375L65.0625 50L73.4375 72.75L61.6875 107.937L42.125 50L48.3125 49.375C51.1875 49 50.8125 44.75 47.9375 44.9375C47.9375 44.9375 39.25 45.625 33.625 45.625L30.1875 45.5625C39.8125 31 56.25 21.375 75 21.375C88.9375 21.375 101.687 26.75 111.187 35.4375H110.5C105.25 35.4375 101.5 40 101.5 44.9375C101.5 49.375 104.062 53.125 106.75 57.5C108.812 61.0625 111.187 65.625 111.187 72.3125ZM75.9375 79.6875L92.4375 124.812L92.8125 125.562C87.25 127.562 81.25 128.625 75 128.625C69.75 128.625 64.6875 127.875 59.875 126.437L75.9375 79.6875ZM122.062 49.25C126.383 57.1438 128.641 66.001 128.625 75C128.625 94.75 117.875 112.062 101.937 121.312L118.312 74C121.375 66.375 122.437 60.25 122.437 54.8125L122.062 49.25ZM75 12.5C83.2076 12.5 91.3349 14.1166 98.9177 17.2575C106.501 20.3984 113.39 25.0022 119.194 30.8058C124.998 36.6095 129.602 43.4994 132.742 51.0823C135.883 58.6651 137.5 66.7924 137.5 75C137.5 91.576 130.915 107.473 119.194 119.194C107.473 130.915 91.576 137.5 75 137.5C66.7924 137.5 58.6651 135.883 51.0823 132.742C43.4994 129.602 36.6095 124.998 30.8058 119.194C19.0848 107.473 12.5 91.576 12.5 75C12.5 58.424 19.0848 42.5268 30.8058 30.8058C42.5268 19.0848 58.424 12.5 75 12.5ZM75 134.625C107.875 134.625 134.625 107.875 134.625 75C134.625 42.125 107.875 15.375 75 15.375C42.125 15.375 15.375 42.125 15.375 75C15.375 107.875 42.125 134.625 75 134.625Z" fill="#00749C"/>
</svg>
